<svg version="1.1" xmlns="http://www.w3.org/2000/svg" width="267" height="330">
<path d="M0 0 C1.04742371 0.04338501 2.09484741 0.08677002 3.17401123 0.13146973 C6.16837668 0.25771021 9.1623255 0.39108284 12.15625 0.52734375 C13.06964142 0.56595016 13.98303284 0.60455658 14.92410278 0.64433289 C16.18080276 0.70425163 16.18080276 0.70425163 17.46289062 0.76538086 C18.19721313 0.79869003 18.93153564 0.83199921 19.68811035 0.86631775 C21.5 1.0625 21.5 1.0625 23.5 2.0625 C22.86328973 9.89771974 21.1318324 17.28219252 19.2265625 24.8984375 C18.8984115 26.2267431 18.57073296 27.55516551 18.24349976 28.88369751 C17.55934405 31.65640774 16.87153349 34.42817384 16.18066406 37.19921875 C15.30287912 40.72000003 14.43117109 44.2422467 13.56185341 47.76512718 C12.72288298 51.16421634 11.88119646 54.56263095 11.0390625 57.9609375 C10.72957672 59.21023041 10.42009094 60.45952332 10.10122681 61.74667358 C8.32429796 68.87807977 6.47096873 75.9821904 4.5 83.0625 C5.82 83.7225 7.14 84.3825 8.5 85.0625 C7.819375 85.701875 7.13875 86.34125 6.4375 87 C2.12371813 93.81855844 6.65459248 105.7402607 8.08984375 113.35546875 C8.35314526 114.76575892 8.61614844 116.17610482 8.87887573 117.58650208 C9.43804962 120.58511531 9.99920305 123.58334853 10.56192017 126.58129883 C11.44384968 131.28069012 12.32035542 135.98108316 13.19604492 140.68164062 C15.612622 153.6476589 18.03803111 166.61201198 20.47492504 179.57422733 C21.53945584 185.23757152 22.5992157 190.90180056 23.65750122 196.5663147 C24.30194963 200.00618531 24.95253208 203.44485979 25.60327148 206.88354492 C25.9923512 208.96396892 26.38112348 211.04445045 26.76953125 213.125 C27.03574783 214.51704399 27.03574783 214.51704399 27.30734253 215.93721008 C28.12958633 220.3783752 28.70645406 224.52144269 28.5 229.0625 C27.7359082 229.04695068 26.97181641 229.03140137 26.18457031 229.01538086 C14.28688408 229.27933157 4.22560137 233.3776519 -6.75 237.625 C-9.55828929 238.69247698 -12.36848275 239.75474693 -15.17962646 240.81468201 C-16.91566332 241.47129185 -18.64968264 242.13326654 -20.38140869 242.80116272 C-21.15692078 243.09824631 -21.93243286 243.3953299 -22.73144531 243.70141602 C-23.75398407 244.09660179 -23.75398407 244.09660179 -24.79718018 244.49977112 C-26.5 245.0625 -26.5 245.0625 -28.5 245.0625 C-28.5 245.7225 -28.5 246.3825 -28.5 247.0625 C-27.93796875 247.02769531 -27.3759375 246.99289062 -26.796875 246.95703125 C0.05330572 246.09222482 22.73287273 254.76706801 42.56640625 272.45703125 C44.44840078 274.12852306 46.37088924 275.7560968 48.33984375 277.32421875 C54.35135608 282.18715245 54.35135608 282.18715245 55.0625 286.375 C52.82388691 290.22541451 49.59154142 290.89318653 45.5 292.0625 C42.08043231 292.77495323 38.6517818 293.24917247 35.1875 293.6875 C34.33349609 293.80867188 33.47949219 293.92984375 32.59960938 294.0546875 C15.49317086 296.32076719 -1.83292147 296.22297433 -19.0546875 296.23046875 C-21.30698683 296.2344227 -23.55928582 296.23856759 -25.81158447 296.2428894 C-31.77333564 296.25214544 -37.73505836 296.25328878 -43.69681549 296.25117874 C-47.38884064 296.24999556 -51.08086295 296.25053248 -54.77288818 296.25119019 C-90.80251747 296.24981073 -126.77481226 295.93676945 -162.76721191 294.18585205 C-165.52118807 294.06154362 -168.27493277 293.96689446 -171.03027344 293.87841797 C-172.74675003 293.81361515 -174.46322168 293.74868119 -176.1796875 293.68359375 C-177.32136887 293.65592674 -177.32136887 293.65592674 -178.4861145 293.62770081 C-183.15918531 293.42991908 -186.55868597 292.61826087 -190.5 290.0625 C-190.995 288.5775 -190.995 288.5775 -191.5 287.0625 C-189.55520569 284.08927209 -186.94939577 281.6274333 -184.5 279.0625 C-183.62988281 278.09763672 -183.62988281 278.09763672 -182.7421875 277.11328125 C-167.60671018 260.96221996 -144.59069161 248.94022446 -122.5 247.0625 C-129.88451587 236.93041506 -137.35189172 226.87943402 -145.08178711 217.0078125 C-149.8321336 210.93759253 -154.51972632 204.82141304 -159.1875 198.6875 C-159.87118652 197.78918457 -160.55487305 196.89086914 -161.25927734 195.96533203 C-163.00789799 193.66567362 -164.7560823 191.36572679 -166.5 189.0625 C-167.07210205 188.38880371 -167.6442041 187.71510742 -168.23364258 187.02099609 C-169.5 185.0625 -169.5 185.0625 -169.0625 181.375 C-168.56892468 179.59637653 -168.04266976 177.82676403 -167.5 176.0625 C-167.15066406 174.79535156 -166.80132812 173.52820313 -166.44140625 172.22265625 C-163.27285171 161.54473897 -158.2802039 154.11541774 -150.99316406 145.79736328 C-148.75476316 143.19663129 -146.69881879 140.48429243 -144.625 137.75 C-143.81065663 136.68431404 -142.9955295 135.61922661 -142.1796875 134.5546875 C-141.75397461 133.9987793 -141.32826172 133.44287109 -140.88964844 132.87011719 C-138.1913188 129.36020281 -135.46958185 125.86845572 -132.75 122.375 C-132.15719238 121.61340576 -131.56438477 120.85181152 -130.95361328 120.06713867 C-129.74065319 118.50904195 -128.52759914 116.95101837 -127.31445312 115.39306641 C-124.37486662 111.61732734 -121.43752285 107.83984465 -118.5 104.0625 C-117.33334461 102.56249123 -116.16667793 101.06249124 -115 99.5625 C-114.4225 98.82 -113.845 98.0775 -113.25 97.3125 C-94 72.5625 -94 72.5625 -92.24658203 70.31201172 C-91.08624617 68.81755622 -89.93092395 67.3191939 -88.78076172 65.81689453 C-85.79751804 61.9340362 -82.74591651 58.16622028 -79.5078125 54.4921875 C-71.23206883 45.22413684 -71.23206883 45.22413684 -68.5625 33.4375 C-68.75814467 31.44878201 -68.95852647 29.45968682 -69.22705078 27.47949219 C-69.68074222 23.46200987 -69.75384305 19.43179019 -69.88842773 15.39306641 C-70.04851841 10.61416708 -70.27506819 5.8387116 -70.5 1.0625 C-46.95650747 -1.91365256 -23.64528906 -0.99621247 0 0 Z M-57.5 147.0625 C-61.30437852 150.80533432 -61.97838755 153.49070558 -62.10562134 158.59436035 C-62.10686005 159.44751831 -62.10809875 160.30067627 -62.109375 161.1796875 C-62.12600189 162.08940308 -62.14262878 162.99911865 -62.15975952 163.93640137 C-62.20922326 166.93684309 -62.23014147 169.9367277 -62.25 172.9375 C-62.27717234 175.02296671 -62.30567408 177.10841648 -62.33544922 179.19384766 C-62.42148863 185.8166128 -62.46299226 192.43930803 -62.5 199.0625 C-62.51521155 201.32942768 -62.53051095 203.59635476 -62.54589844 205.86328125 C-62.58710512 212.38800568 -62.6110491 218.91266411 -62.625 225.4375 C-62.62786011 226.47453064 -62.63072021 227.51156128 -62.63366699 228.58001709 C-62.6393647 231.49869657 -62.63759796 234.41725853 -62.6328125 237.3359375 C-62.63477631 238.20972046 -62.63674011 239.08350342 -62.63876343 239.98376465 C-63.00230436 243.83328593 -63.00230436 243.83328593 -61.5 247.0625 C-58.96950598 247.13563567 -56.46695163 247.15497527 -53.9375 247.125 C-53.22658203 247.12048828 -52.51566406 247.11597656 -51.78320312 247.11132812 C-50.02209987 247.09950864 -48.26103964 247.08157263 -46.5 247.0625 C-45.19660988 243.27203214 -45.65728978 239.9848401 -46.08911133 236.04101562 C-46.16378128 235.34103958 -46.23845123 234.64106354 -46.31538391 233.9198761 C-46.56429208 231.60206136 -46.82316738 229.2854722 -47.08203125 226.96875 C-47.25867066 225.34093026 -47.43465969 223.71303984 -47.61003113 222.08508301 C-48.07493014 217.78485174 -48.54814748 213.48557628 -49.02325439 209.1864624 C-49.5902425 204.04289084 -50.14788805 198.89830031 -50.70651054 193.7538147 C-51.15419355 189.63274726 -51.60377171 185.51191129 -52.05838013 181.39160156 C-52.79761584 174.67487901 -53.52717483 167.96036121 -54.13818359 161.23046875 C-54.22581467 160.27370239 -54.31344574 159.31693604 -54.4037323 158.33117676 C-54.55321296 156.65508243 -54.69479603 154.97825415 -54.82637024 153.30065918 C-54.9819732 151.54711743 -55.22919361 149.80197833 -55.5 148.0625 C-56.16 147.7325 -56.82 147.4025 -57.5 147.0625 Z M-110.5 224.0625 C-111.14881448 226.60343855 -111.79412899 229.14518273 -112.4375 231.6875 C-112.61990234 232.40035156 -112.80230469 233.11320313 -112.99023438 233.84765625 C-114.01130529 237.89481005 -114.99555509 241.91200388 -115.5 246.0625 C-114.36492192 247.4246182 -114.36492192 247.4246182 -111.35717773 247.17602539 C-109.96597303 247.17586633 -108.57476239 247.17017506 -107.18359375 247.16015625 C-106.08701195 247.15803383 -106.08701195 247.15803383 -104.96827698 247.15586853 C-102.62464368 247.15025408 -100.28110461 247.13769922 -97.9375 247.125 C-96.35221492 247.11998686 -94.76692834 247.11542363 -93.18164062 247.11132812 C-89.2877239 247.10027997 -85.39387795 247.08300572 -81.5 247.0625 C-81.1493028 244.11135894 -81.1493028 244.11135894 -82.79418945 242.74731445 C-83.39448975 242.3112085 -83.99479004 241.87510254 -84.61328125 241.42578125 C-85.27956543 240.93432617 -85.94584961 240.44287109 -86.63232422 239.93652344 C-87.35178223 239.4212207 -88.07124023 238.90591797 -88.8125 238.375 C-89.53711426 237.84551758 -90.26172852 237.31603516 -91.00830078 236.77050781 C-92.47515249 235.69998846 -93.94487339 234.63338913 -95.41748047 233.57080078 C-97.27120187 232.228211 -99.10978076 230.86858304 -100.94140625 229.49609375 C-105.30090384 225.69615501 -105.30090384 225.69615501 -110.5 224.0625 Z " fill="#97A2AB" transform="translate(201.5,19.9375)"/>
<path d="M0 0 C0.88486084 0.00950684 1.76972168 0.01901367 2.68139648 0.02880859 C7.99680445 0.24803251 11.12519864 1.22489875 15.17700195 4.73266602 C17.85778655 6.67949065 20.5024688 6.67617156 23.75 6.875 C23.75 4.895 23.75 2.915 23.75 0.875 C63.04778661 -1.09247358 99.07140575 -1.16514523 129.81640625 26.26953125 C131.69840078 27.94102306 133.62088924 29.5685968 135.58984375 31.13671875 C141.60135608 35.99965245 141.60135608 35.99965245 142.3125 40.1875 C140.07388691 44.03791451 136.84154142 44.70568653 132.75 45.875 C129.33043231 46.58745323 125.9017818 47.06167247 122.4375 47.5 C121.58349609 47.62117188 120.72949219 47.74234375 119.84960938 47.8671875 C102.74317086 50.13326719 85.41707853 50.03547433 68.1953125 50.04296875 C65.94301317 50.0469227 63.69071418 50.05106759 61.43841553 50.0553894 C55.47666436 50.06464544 49.51494164 50.06578878 43.55318451 50.06367874 C39.86115936 50.06249556 36.16913705 50.06303248 32.47711182 50.06369019 C-3.55251747 50.06231073 -39.52481226 49.74926945 -75.51721191 47.99835205 C-78.27118807 47.87404362 -81.02493277 47.77939446 -83.78027344 47.69091797 C-85.49675003 47.62611515 -87.21322168 47.56118119 -88.9296875 47.49609375 C-89.69080841 47.47764908 -90.45192932 47.45920441 -91.2361145 47.44020081 C-95.90918531 47.24241908 -99.30868597 46.43076087 -103.25 43.875 C-103.745 42.39 -103.745 42.39 -104.25 40.875 C-102.30520569 37.90177209 -99.69939577 35.4399333 -97.25 32.875 C-96.66992188 32.23175781 -96.08984375 31.58851563 -95.4921875 30.92578125 C-76.57537878 10.73966285 -50.26045893 1.0632423 -23.19433594 0.12451172 C-15.45808012 -0.10471829 -7.73734533 -0.21716527 0 0 Z " fill="#EBF4F4" transform="translate(114.25,266.125)"/>
<path d="M0 0 C1.65 0.33 3.3 0.66 5 1 C5.11070944 3.04166491 5.2213766 5.08333212 5.33203125 7.125 C5.36835663 7.7926387 5.40468201 8.4602774 5.44210815 9.14814758 C5.65552205 13.07669119 5.86574401 17.0053754 6.0715332 20.93432617 C6.54429302 29.90129335 7.04728721 38.86480736 7.61909485 47.82606506 C9.76657653 81.61864091 11.1230987 115.40654579 8.45703125 149.21875 C7.65069169 160.43762106 7.89526215 171.69665432 7.9375 182.9375 C7.94252635 185.27799383 7.94708724 187.61848871 7.95117188 189.95898438 C7.96208454 195.63934615 7.97873221 201.31966805 8 207 C0.32134858 207.14573029 0.32134858 207.14573029 -2.6875 204.625 C-4.53822272 203.15020533 -6.049393 201.97600912 -8.1875 200.9375 C-10 200 -10 200 -11.7734375 198.203125 C-17.09493925 192.93763905 -23.48946794 188.68590598 -29.67578125 184.484375 C-30.27269775 184.07856201 -30.86961426 183.67274902 -31.48461914 183.25463867 C-33.17743167 182.11150445 -34.87762681 180.97932582 -36.578125 179.84765625 C-37.37734375 179.23792969 -38.1765625 178.62820312 -39 178 C-39 177.34 -39 176.68 -39 176 C-39.84304687 175.5978125 -39.84304687 175.5978125 -40.703125 175.1875 C-43.15550646 173.9196021 -45.43927683 172.51027658 -47.75 171 C-48.54921875 170.484375 -49.3484375 169.96875 -50.171875 169.4375 C-50.77515625 168.963125 -51.3784375 168.48875 -52 168 C-52 167.34 -52 166.68 -52 166 C-52.721875 165.74992188 -53.44375 165.49984375 -54.1875 165.2421875 C-57.25219604 163.88861341 -59.42381931 162.25839963 -62 160.125 C-62.825 159.44695312 -63.65 158.76890625 -64.5 158.0703125 C-65.7375 157.04550781 -65.7375 157.04550781 -67 156 C-68.66440899 154.66384945 -70.33042864 153.32969433 -72 152 C-70.51834915 146.99357975 -68.36148297 142.67944381 -65.875 138.125 C-65.05203581 136.59186952 -64.23044772 135.05799966 -63.41015625 133.5234375 C-63.00039551 132.75741211 -62.59063477 131.99138672 -62.16845703 131.20214844 C-39.53897338 88.55318426 -19.86803796 43.97549946 0 0 Z " fill="#8E979E" transform="translate(130,66)"/>
<path d="M0 0 C4.23373247 20.69930331 8.1262934 41.45982992 12.00531006 62.2277832 C12.82649193 66.62214475 13.64969456 71.01612774 14.47265625 75.41015625 C15.4323762 80.5346247 16.39125472 85.6592447 17.34619141 90.78460693 C17.65136444 92.42248586 17.95654018 94.06036429 18.26171875 95.69824219 C18.4830246 96.88611643 18.4830246 96.88611643 18.70880127 98.09798813 C19.53160012 102.5085745 20.36241523 106.91751575 21.20349884 111.32465172 C21.57041838 113.24867565 21.93484718 115.17317406 22.29919434 117.09768677 C22.72980029 119.37120378 23.16444709 121.64396115 23.60412598 123.91574097 C24.50045688 128.67262803 25.26988342 133.13275629 25 138 C23.87235229 137.9690625 23.87235229 137.9690625 22.72192383 137.9375 C10.45850292 138.16784968 -0.01707012 142.60602993 -11.3125 147 C-13.31121946 147.75947124 -15.31056499 148.51729697 -17.31054688 149.2734375 C-20.93123447 150.65055533 -24.55078835 152.03018554 -28.16137695 153.43359375 C-28.88081985 153.71259521 -29.60026276 153.99159668 -30.34150696 154.27905273 C-32.00303827 154.88084194 -32.00303827 154.88084194 -33 156 C-35.86469325 156.07330331 -38.69893674 156.09217831 -41.5625 156.0625 C-43.0676244 156.05101114 -44.57275159 156.03988496 -46.07788086 156.02905273 C-47.37218018 156.01946533 -48.66647949 156.00987793 -50 156 C-50.09506836 154.9488501 -50.19013672 153.8977002 -50.28808594 152.81469727 C-51.34098969 141.39411312 -52.52137284 129.98907187 -53.74232483 118.58549118 C-54.29820521 113.38233315 -54.84727995 108.17845083 -55.39691925 102.97463036 C-55.87297341 98.47355982 -56.35355552 93.97304881 -56.84277344 89.47338867 C-57.32227721 85.06064684 -57.79020228 80.64681529 -58.25017548 76.23199654 C-58.42618317 74.56298524 -58.60642017 72.89441418 -58.79102325 71.22633171 C-59.04653278 68.91223378 -59.28720571 66.59704092 -59.52441406 64.28100586 C-59.60326843 63.5990213 -59.6821228 62.91703674 -59.7633667 62.21438599 C-60.12300284 58.53219697 -60.11893513 56.09785087 -58 53 C-56.33935547 51.20410156 -56.33935547 51.20410156 -54.3671875 49.390625 C-53.64273438 48.71773437 -52.91828125 48.04484375 -52.171875 47.3515625 C-51.41390625 46.65804687 -50.6559375 45.96453125 -49.875 45.25 C-48.39203089 43.8815057 -46.91025665 42.51171544 -45.4296875 41.140625 C-44.32935181 40.12186279 -44.32935181 40.12186279 -43.20678711 39.08251953 C-40.34356449 36.38052938 -37.56984883 33.59692948 -34.81030273 30.78955078 C-32.37522236 28.38238434 -29.80383806 26.1560739 -27.2109375 23.921875 C-24.5470945 21.60630829 -21.92797207 19.24505244 -19.3125 16.875 C-18.42175781 16.06804687 -17.53101563 15.26109375 -16.61328125 14.4296875 C-13.32629116 11.37362197 -10.16734175 8.20945027 -7.05078125 4.98046875 C-6.19033203 4.09294922 -6.19033203 4.09294922 -5.3125 3.1875 C-4.73113281 2.58292969 -4.14976562 1.97835937 -3.55078125 1.35546875 C-2 0 -2 0 0 0 Z " fill="#61666F" transform="translate(205,111)"/>
<path d="M0 0 C0.495 0.99 0.495 0.99 1 2 C0.05462923 4.151753 -0.95956219 6.17885452 -2.0625 8.25 C-6.09822534 16.07419725 -9.85690998 24.01498676 -13.5625 32 C-14.16391924 33.29429959 -14.76540117 34.58857005 -15.36694336 35.8828125 C-16.29573089 37.8813564 -17.22440005 39.87995459 -18.15257263 41.87878418 C-20.36335199 46.63768271 -22.58609504 51.39085119 -24.81640625 56.140625 C-25.13126984 56.81124466 -25.44613342 57.48186432 -25.77053833 58.17280579 C-27.03850257 60.87289851 -28.30675487 63.57285552 -29.57556152 66.27255249 C-32.83549704 73.21068455 -36.08044276 80.15423356 -39.26171875 87.12890625 C-44.78900924 99.2456898 -50.56113945 111.12677569 -56.86376953 122.85791016 C-59.03733137 126.95563933 -61.10196228 131.10786257 -63.15087891 135.26904297 C-64.75725222 138.53066842 -66.39699042 141.7636139 -68.12109375 144.96484375 C-68.45794189 145.60188232 -68.79479004 146.2389209 -69.1418457 146.89526367 C-70.06605063 148.63879108 -71.00518736 150.37438011 -71.9453125 152.109375 C-73.24039503 154.84410737 -73.24039503 154.84410737 -72.5078125 157.140625 C-70.5238785 159.58713429 -68.33074265 161.19489038 -65.75 163 C-64.76902344 163.69351563 -63.78804687 164.38703125 -62.77734375 165.1015625 C-60.64111903 166.56176674 -58.4934964 167.98376489 -56.3125 169.375 C-55.549375 169.91125 -54.78625 170.4475 -54 171 C-54 171.66 -54 172.32 -54 173 C-53.34 173.20625 -52.68 173.4125 -52 173.625 C-47.8124764 175.54428165 -44.04013247 177.46211284 -41 181 C-40.82908295 184.58925795 -41.14102856 186.5975187 -42 190 C-42.39040528 191.97792065 -42.78042705 193.95593361 -43.16088867 195.93579102 C-43.55082667 197.94000124 -43.96162873 199.93882532 -44.37890625 201.9375 C-45.03312663 204.64253368 -45.03312663 204.64253368 -45 206 C-48.09514353 206.45179655 -50.01441764 206.70084717 -53 206 C-55.78836765 203.61999027 -57.63001756 200.67832856 -59.625 197.625 C-60.84646833 195.86285473 -62.07049108 194.10247776 -63.296875 192.34375 C-63.91240234 191.4465625 -64.52792969 190.549375 -65.16210938 189.625 C-67.92514261 185.6786486 -70.88829592 181.90324247 -73.875 178.125 C-79.19998268 171.33239458 -84.46073721 164.49347964 -89.6875 157.625 C-90.37118652 156.72668457 -91.05487305 155.82836914 -91.75927734 154.90283203 C-93.50789799 152.60317362 -95.2560823 150.30322679 -97 148 C-97.57210205 147.32630371 -98.1442041 146.65260742 -98.73364258 145.95849609 C-100 144 -100 144 -99.5625 140.3125 C-99.06892468 138.53387653 -98.54266976 136.76426403 -98 135 C-97.65066406 133.73285156 -97.30132812 132.46570313 -96.94140625 131.16015625 C-93.77285171 120.48223897 -88.7802039 113.05291774 -81.49316406 104.73486328 C-79.25476316 102.13413129 -77.19881879 99.42179243 -75.125 96.6875 C-74.31065663 95.62181404 -73.4955295 94.55672661 -72.6796875 93.4921875 C-72.25397461 92.9362793 -71.82826172 92.38037109 -71.38964844 91.80761719 C-68.6913188 88.29770281 -65.96958185 84.80595572 -63.25 81.3125 C-62.65719238 80.55090576 -62.06438477 79.78931152 -61.45361328 79.00463867 C-60.24065319 77.44654195 -59.02759914 75.88851837 -57.81445312 74.33056641 C-54.87486662 70.55482734 -51.93752285 66.77734465 -49 63 C-47.83334461 61.49999123 -46.66667793 59.99999124 -45.5 58.5 C-44.63375 57.38625 -44.63375 57.38625 -43.75 56.25 C-29.16666667 37.5 -14.58333333 18.75 0 0 Z " fill="#65696F" transform="translate(132,61)"/>
<path d="M0 0 C40.86303703 -0.18991115 40.86303703 -0.18991115 54.4375 0.4375 C55.30971191 0.47673584 56.18192383 0.51597168 57.08056641 0.55639648 C62.7227953 0.86139765 62.7227953 0.86139765 65 2 C64.36504648 9.86263838 62.6121142 17.26629811 60.69140625 24.90625 C60.36078798 26.23932868 60.03071495 27.57254268 59.70115662 28.90588379 C58.83727821 32.39540612 57.96671854 35.88322518 57.09448242 39.3706665 C56.03946563 43.5935177 54.99155742 47.81813704 53.94348812 52.04271698 C53.12728498 55.3326555 52.30941634 58.62214055 51.4879303 61.9107666 C51.19099777 63.10230347 50.89406525 64.29384033 50.58813477 65.52148438 C50.31035187 66.63418701 50.03256897 67.74688965 49.74636841 68.89331055 C49.07465915 71.68923819 48.48119253 74.48891118 47.90991211 77.30664062 C47.45950562 79.13485352 47.45950562 79.13485352 47 81 C46.01 81.495 46.01 81.495 45 82 C43.23852539 81.20239258 43.23852539 81.20239258 41.09765625 79.89453125 C40.29859863 79.41113281 39.49954102 78.92773438 38.67626953 78.4296875 C37.81372559 77.89601563 36.95118164 77.36234375 36.0625 76.8125 C35.17675293 76.27238281 34.29100586 75.73226562 33.37841797 75.17578125 C24.19098826 69.5530157 15.04114283 63.85569501 6 58 C4.9387793 57.53819336 3.87755859 57.07638672 2.78417969 56.60058594 C-0.47121955 53.5598535 -0.44957479 52.86752974 -0.68115234 48.58886719 C-0.68020296 46.32464754 -0.64633423 44.06028918 -0.5859375 41.796875 C-0.57744781 40.60394836 -0.56895813 39.41102173 -0.56021118 38.1819458 C-0.5266144 34.37038001 -0.45131453 30.56092676 -0.375 26.75 C-0.34490892 24.16669721 -0.31753164 21.58336127 -0.29296875 19 C-0.22680197 12.66594544 -0.12638734 6.33312361 0 0 Z " fill="#5B5D64" transform="translate(160,20)"/>
<path d="M0 0 C1.60218939 4.03131523 0.37902949 7.61335225 -0.6875 11.625 C-0.87248047 12.34429687 -1.05746094 13.06359375 -1.24804688 13.8046875 C-2.48670525 18.47379976 -4.06447842 22.83939065 -5.984375 27.2734375 C-8.23924457 33.32689503 -9.53459633 39.71747149 -11 46 C-11.66 46 -12.32 46 -13 46 C-13.03738281 46.6290625 -13.07476562 47.258125 -13.11328125 47.90625 C-13.17902344 48.7621875 -13.24476563 49.618125 -13.3125 50.5 C-13.37050781 51.3353125 -13.42851562 52.170625 -13.48828125 53.03125 C-14.02349983 56.13633488 -15.02827789 58.8698291 -16.17749023 61.79541016 C-17.65929273 65.76711587 -18.73961359 69.85602081 -19.875 73.9375 C-20.39786945 75.79312891 -20.9213156 77.6485954 -21.4453125 79.50390625 C-21.83444824 80.88473389 -21.83444824 80.88473389 -22.23144531 82.29345703 C-23.57014318 87.0078168 -24.96034599 91.70679054 -26.35107422 96.40600586 C-27.23634215 99.39918079 -28.11092838 102.39390895 -28.95703125 105.3984375 C-30.20525886 109.70879653 -31.56873428 113.97672798 -32.9375 118.25 C-34.88889182 124.37126375 -36.72128057 130.49414052 -38.34765625 136.7109375 C-38.99194847 138.97174733 -39.76854075 141.12422614 -40.625 143.3125 C-41.85096591 146.60031767 -42.56645061 149.53160488 -43 153 C-43.66 153 -44.32 153 -45 153 C-45.19727498 138.76920903 -45.31208818 124.53974559 -45.33421898 110.30756187 C-45.34685892 103.6975453 -45.38511559 97.08981072 -45.48339844 90.48046875 C-45.57741486 84.09300361 -45.60220275 77.70856692 -45.58046341 71.32048416 C-45.58408294 68.89248308 -45.61199549 66.46438425 -45.66541672 64.03696823 C-46.1011971 43.0391395 -46.1011971 43.0391395 -39.08516884 35.43988991 C-36.70450914 33.20042867 -34.2526485 31.1461576 -31.6254158 29.20265579 C-29.56689527 27.67954298 -27.69544272 25.98296314 -25.8125 24.25 C-25.214375 23.74210937 -24.61625 23.23421875 -24 22.7109375 C-21.39278066 20.48054283 -18.85400259 18.17992655 -16.3125 15.875 C-15.42175781 15.06804687 -14.53101563 14.26109375 -13.61328125 13.4296875 C-11.01163873 11.01082106 -8.49731831 8.52607033 -6 6 C-4 4 -2 2 0 0 Z " fill="#6E757D" transform="translate(202,112)"/>
<path d="M0 0 C2.4491066 3.6736599 4.47299761 7.51977555 6.5625 11.40625 C8.01714051 14.11436645 8.01714051 14.11436645 10 17 C10 17.99 10 18.98 10 20 C10.66 20 11.32 20 12 20 C19.63206923 32.90653654 26.54078628 45.95625354 32.85058594 59.5546875 C34.62934273 63.33889058 36.49461991 67.07797975 38.375 70.8125 C38.68469727 71.42778564 38.99439453 72.04307129 39.31347656 72.67700195 C40.2082517 74.45170423 41.10412426 76.22585306 42 78 C42.70796507 79.40708263 43.41498437 80.81464148 44.12109375 82.22265625 C44.44005615 82.85824463 44.75901855 83.49383301 45.08764648 84.14868164 C47.51596053 89.07613826 49.3322957 93.52482472 50 99 C51.65 99 53.3 99 55 99 C55 99.33 55 99.66 55 100 C51.22684928 100.35099077 49.51457512 100.36755366 46.375 98.125 C45.199375 97.073125 45.199375 97.073125 44 96 C43.319375 95.67 42.63875 95.34 41.9375 95 C40 94 40 94 38.21875 92.19921875 C32.90451094 86.93175996 26.50738864 82.68377108 20.32421875 78.484375 C19.72730225 78.07856201 19.13038574 77.67274902 18.51538086 77.25463867 C16.82256833 76.11150445 15.12237319 74.97932582 13.421875 73.84765625 C12.62265625 73.23792969 11.8234375 72.62820312 11 72 C11 71.34 11 70.68 11 70 C10.15695313 69.5978125 10.15695313 69.5978125 9.296875 69.1875 C6.84449354 67.9196021 4.56072317 66.51027658 2.25 65 C1.45078125 64.484375 0.6515625 63.96875 -0.171875 63.4375 C-0.77515625 62.963125 -1.3784375 62.48875 -2 62 C-2 61.34 -2 60.68 -2 60 C-3.0828125 59.62488281 -3.0828125 59.62488281 -4.1875 59.2421875 C-7.25219604 57.88861341 -9.42381931 56.25839963 -12 54.125 C-13.2375 53.10792969 -13.2375 53.10792969 -14.5 52.0703125 C-15.325 51.38710937 -16.15 50.70390625 -17 50 C-18.66440899 48.66384945 -20.33042864 47.32969433 -22 46 C-20.51838477 40.99370011 -18.36187959 36.67919684 -15.875 32.125 C-12.71429775 26.24555264 -9.61200815 20.3447754 -6.625 14.375 C-6.3038623 13.7370752 -5.98272461 13.09915039 -5.65185547 12.44189453 C-3.61207378 8.35049072 -1.76582657 4.21415052 0 0 Z " fill="#7D8693" transform="translate(80,172)"/>
<path d="M0 0 C0 0.33 0 0.66 0 1 C-5.61 1 -11.22 1 -17 1 C-17 18.49 -17 35.98 -17 54 C-21.14667871 52.61777376 -24.55940815 51.33435798 -28.375 49.375 C-29.24898437 48.92898437 -30.12296875 48.48296875 -31.0234375 48.0234375 C-31.67570313 47.68570313 -32.32796875 47.34796875 -33 47 C-33 46.34 -33 45.68 -33 45 C-34.093125 44.71125 -35.18625 44.4225 -36.3125 44.125 C-40 43 -40 43 -43 41 C-46.2758782 28.595832 -45.61095058 14.72950721 -46 2 C-30.62916966 0.0569605 -15.48246128 -0.23746106 0 0 Z " fill="#818385" transform="translate(177,19)"/>
<path d="M0 0 C0.33 0 0.66 0 1 0 C3.39111293 12.83280657 5.7820626 25.66564354 8.17281628 38.49851704 C9.28350958 44.46037009 10.39425455 50.42221351 11.50512695 56.3840332 C11.72055082 57.54020708 11.93597469 58.69638096 12.15792656 59.88759041 C12.58907588 62.20150357 13.02025474 64.51541123 13.4514637 66.82931328 C14.50311436 72.47316588 15.55394529 78.11716879 16.60299683 83.76150513 C18.29800104 92.87929001 19.99441534 101.99658698 21.72900391 111.10693359 C21.96960037 112.37852829 22.21019684 113.65012299 22.45808411 114.96025085 C22.87485238 117.15969136 23.29569255 119.35836711 23.7219696 121.5559845 C23.89662247 122.48134506 24.07127533 123.40670563 24.2512207 124.36010742 C24.47174858 125.50669075 24.47174858 125.50669075 24.69673157 126.67643738 C25.05605117 129.42944929 25 132.22363814 25 135 C20.38 135 15.76 135 11 135 C10.91959473 133.98389648 10.83918945 132.96779297 10.75634766 131.92089844 C10.44900191 128.04394225 10.13891695 124.16720866 9.828125 120.29052734 C9.69557581 118.63270661 9.56370831 116.9748312 9.43261719 115.31689453 C8.71866309 106.29361307 7.94880088 97.28159086 7.0234375 88.27734375 C5.73964502 75.76510557 4.75431202 63.22887745 3.75 50.69165039 C2.83493089 39.30243576 1.85564566 27.95188387 0.37939453 16.62011719 C-0.20200455 11.07250743 -0.17451058 5.57464346 0 0 Z " fill="#758593" transform="translate(205,114)"/>
<path d="M0 0 C0.02320435 13.01332438 0.04095632 26.02664382 0.05181217 39.0399847 C0.0570233 45.08306041 0.06408876 51.12612192 0.07543945 57.16918945 C0.08633129 63.00470176 0.09229017 68.84020044 0.09487724 74.67572212 C0.09672015 76.89836402 0.10031886 79.1210052 0.10573006 81.34364128 C0.11302406 84.46470609 0.11398742 87.58571511 0.11352539 90.70678711 C0.11712067 91.61885422 0.12071594 92.53092133 0.12442017 93.47062683 C0.11551337 99.05704545 -0.29162993 104.45744224 -1 110 C2.63 110 6.26 110 10 110 C10 110.33 10 110.66 10 111 C6.04 111 2.08 111 -2 111 C-4.07495045 100.74477524 -5.14377291 90.43036196 -6.234375 80.03515625 C-6.43806828 78.10989659 -6.64178366 76.18463926 -6.84552002 74.25938416 C-7.26888503 70.24641415 -7.6884448 66.23306528 -8.10595703 62.21948242 C-8.64196769 57.07467971 -9.19301928 51.93160349 -9.74752426 46.78876591 C-10.17244065 42.82368211 -10.58669733 38.8575374 -10.99799347 34.89101982 C-11.1966133 32.99317379 -11.39919992 31.09573855 -11.60582733 29.19874763 C-11.89268598 26.55548619 -12.16450054 23.91108804 -12.43261719 21.26586914 C-12.5208223 20.48401749 -12.6090274 19.70216583 -12.6999054 18.8966217 C-13.0758454 15.02589006 -13.34054557 12.22880854 -11 9 C-9.36783289 7.35968563 -7.67415605 5.77925684 -5.9375 4.25 C-5.03902344 3.45078125 -4.14054688 2.6515625 -3.21484375 1.828125 C-1 0 -1 0 0 0 Z " fill="#484F57" transform="translate(158,155)"/>
<path d="M0 0 C0.33 0 0.66 0 1 0 C0.67 3.63 0.34 7.26 0 11 C-0.66 11 -1.32 11 -2 11 C-2.34274406 12.66475686 -2.67364302 14.33195323 -3 16 C-3.20625 17.051875 -3.4125 18.10375 -3.625 19.1875 C-4.26074106 21.94643572 -4.26074106 21.94643572 -3 24 C-3.33 24.66 -3.66 25.32 -4 26 C-2.68 25.67 -1.36 25.34 0 25 C0 25.99 0 26.98 0 28 C0.66 28.33 1.32 28.66 2 29 C2 29.99 2 30.98 2 32 C2.99 32.33 3.98 32.66 5 33 C5 33.66 5 34.32 5 35 C5.66 35.33 6.32 35.66 7 36 C6.67 36.66 6.34 37.32 6 38 C6.99 38 7.98 38 9 38 C9.3403125 39.2065625 9.3403125 39.2065625 9.6875 40.4375 C10.120625 41.283125 10.55375 42.12875 11 43 C13.54775306 43.89386164 13.54775306 43.89386164 16 44 C15.67 45.65 15.34 47.3 15 49 C19.39253773 50.56272189 19.39253773 50.56272189 24 51 C24.66 51 25.32 51 26 51 C26.63615234 52.59714844 26.63615234 52.59714844 27.28515625 54.2265625 C30.73268872 62.78643186 34.40619457 71.07942796 38.71484375 79.2421875 C40 82 40 82 40 85 C34.57289004 78.48233603 29.34868166 71.87341965 24.2890625 65.06640625 C21.64104302 61.51914465 18.94266967 58.01290818 16.23828125 54.50854492 C11.99231768 49.00064073 7.77672816 43.46970782 3.5625 37.9375 C2.86374756 37.0204126 2.16499512 36.1033252 1.44506836 35.15844727 C-2.29581523 30.24611603 -2.29581523 30.24611603 -4 28 C-4.86443726 26.98788452 -4.86443726 26.98788452 -5.74633789 25.95532227 C-7 24 -7 24 -6.5 20.1875 C-4.68982774 13.35925527 -2.30394732 6.67441228 0 0 Z " fill="#565E5F" transform="translate(39,181)"/>
<path d="M0 0 C0.33 0.66 0.66 1.32 1 2 C-0.15692026 4.5858812 -1.36976667 7.06014058 -2.6875 9.5625 C-3.43670485 11.01208729 -4.18411438 12.46260394 -4.9296875 13.9140625 C-5.47061035 14.9664209 -5.47061035 14.9664209 -6.02246094 16.04003906 C-7.23058662 18.46232502 -8.28373219 20.93443502 -9.3125 23.4375 C-9.869375 24.613125 -10.42625 25.78875 -11 27 C-14 28 -14 28 -16.1875 27.0625 C-17.0846875 26.5365625 -17.0846875 26.5365625 -18 26 C-18.33 27.65 -18.66 29.3 -19 31 C-19.99 30.67 -20.98 30.34 -22 30 C-22.66 31.32 -23.32 32.64 -24 34 C-24.66 33.67 -25.32 33.34 -26 33 C-25.20078125 32.030625 -24.4015625 31.06125 -23.578125 30.0625 C-16.58671401 21.54185182 -9.82556593 12.89219594 -3.265625 4.03515625 C-1 1 -1 1 0 0 Z " fill="#676A72" transform="translate(132,61)"/>
<path d="M0 0 C0.33 0 0.66 0 1 0 C2.28683311 6.76173561 3.56799707 13.52452755 4.84521484 20.28808594 C5.28043062 22.5891149 5.71694632 24.8898984 6.15478516 27.19042969 C6.78369123 30.49610832 7.40792588 33.80263989 8.03125 37.109375 C8.22811401 38.13867126 8.42497803 39.16796753 8.62780762 40.22845459 C8.89808777 41.66949554 8.89808777 41.66949554 9.17382812 43.13964844 C9.33371216 43.98348083 9.49359619 44.82731323 9.6583252 45.69671631 C10 48 10 48 10 52 C9.34 52 8.68 52 8 52 C7.34 49.03 6.68 46.06 6 43 C5.34 44.32 4.68 45.64 4 47 C3.42015834 42.39712127 2.85102723 37.79307765 2.29101562 33.18774414 C2.09981435 31.62717604 1.90588704 30.06693906 1.70898438 28.50708008 C0.50356532 18.94060389 -0.30625095 9.65860206 0 0 Z " fill="#77828F" transform="translate(205,114)"/>
<path d="M0 0 C0.33 0 0.66 0 1 0 C0.67 3.63 0.34 7.26 0 11 C-0.66 11 -1.32 11 -2 11 C-2.34274406 12.66475686 -2.67364302 14.33195323 -3 16 C-3.20625 17.051875 -3.4125 18.10375 -3.625 19.1875 C-4.26074106 21.94643572 -4.26074106 21.94643572 -3 24 C-3.33 24.66 -3.66 25.32 -4 26 C-2.68 25.67 -1.36 25.34 0 25 C0 25.99 0 26.98 0 28 C0.66 28.33 1.32 28.66 2 29 C2 29.99 2 30.98 2 32 C2.99 32.33 3.98 32.66 5 33 C5 33.66 5 34.32 5 35 C5.66 35.33 6.32 35.66 7 36 C6.67 36.66 6.34 37.32 6 38 C6.99 38 7.98 38 9 38 C9.28875 38.78375 9.5775 39.5675 9.875 40.375 C10.84912254 43.09671632 10.84912254 43.09671632 13 45 C12.625 47.125 12.625 47.125 12 49 C9.39558482 45.5835227 6.79151125 42.16678518 4.1875 38.75 C3.44951172 37.78191406 2.71152344 36.81382812 1.95117188 35.81640625 C0.88286133 34.41455078 0.88286133 34.41455078 -0.20703125 32.984375 C-0.8616333 32.12553711 -1.51623535 31.26669922 -2.19067383 30.38183594 C-2.78775146 29.59583008 -3.3848291 28.80982422 -4 28 C-4.58354248 27.31583008 -5.16708496 26.63166016 -5.76831055 25.92675781 C-7 24 -7 24 -6.5 20.1875 C-4.68982774 13.35925527 -2.30394732 6.67441228 0 0 Z " fill="#4A676A" transform="translate(39,181)"/>
<path d="M0 0 C0.33 0 0.66 0 1 0 C1.02497729 3.9652407 1.0429894 7.93045005 1.05493164 11.89575195 C1.06235104 13.89731458 1.07506659 15.89885533 1.08789062 17.90039062 C1.10499609 24.69125925 0.93798004 31.27165501 0 38 C3.63 38 7.26 38 11 38 C11 38.33 11 38.66 11 39 C7.04 39 3.08 39 -1 39 C-2.20894317 32.8797252 -3.2770731 27.2341448 -3 21 C-2.01 21 -1.02 21 0 21 C0 14.07 0 7.14 0 0 Z " fill="#495A62" transform="translate(157,227)"/>
<path d="M0 0 C0 0.33 0 0.66 0 1 C-0.66306152 1.01981934 -1.32612305 1.03963867 -2.00927734 1.06005859 C-15.77882372 1.49057991 -29.32951989 2.27683024 -43 4 C-43.33 11.26 -43.66 18.52 -44 26 C-44.33 26 -44.66 26 -45 26 C-45.33 18.08 -45.66 10.16 -46 2 C-30.58410336 0.15929592 -15.51671961 -0.2379865 0 0 Z " fill="#5F9FA2" transform="translate(177,19)"/>
<path d="M0 0 C0.33 0 0.66 0 1 0 C1.85930332 4.34070064 2.71365585 8.68233775 3.56347656 13.02490234 C3.85313943 14.50140535 4.14414261 15.97764608 4.43652344 17.45361328 C4.85706375 19.57777098 5.27274133 21.70283182 5.6875 23.828125 C5.93886719 25.1059082 6.19023437 26.38369141 6.44921875 27.70019531 C7 31 7 31 7 35 C6.34 35 5.68 35 5 35 C3.4943096 29.19233704 2.78175223 24.0018137 3 18 C2.34 18 1.68 18 1 18 C0.67 12.06 0.34 6.12 0 0 Z " fill="#6692A1" transform="translate(208,131)"/>
<path d="M0 0 C0.4125 1.010625 0.825 2.02125 1.25 3.0625 C2.40158657 5.78644515 3.71963253 8.28314265 5.25 10.8125 C5.8275 11.864375 6.405 12.91625 7 14 C6.67 14.66 6.34 15.32 6 16 C4.5369343 14.25395451 3.0797192 12.50300547 1.625 10.75 C0.81289062 9.77546875 0.00078125 8.8009375 -0.8359375 7.796875 C-2.57851757 5.5447318 -3.876416 3.59288614 -5 1 C-3 0 -3 0 0 0 Z " fill="#526369" transform="translate(73,250)"/>
<path d="M0 0 C0 3.58371915 -0.74478337 4.27587204 -2.9375 7 C-4.90175833 9.45184019 -5.99335342 10.98006027 -7 14 C-9.79899966 17.10159421 -12.22637281 19.25399339 -16 21 C-11.30257468 13.43829096 -5.77414866 6.74411434 0 0 Z " fill="#527A83" transform="translate(105,96)"/>
<path d="M0 0 C0.33 0.99 0.66 1.98 1 3 C-0.14453125 4.8671875 -0.14453125 4.8671875 -1.8125 6.875 C-4.15143767 9.81630908 -5.86518523 12.36859274 -7 16 C-7.99 15.67 -8.98 15.34 -10 15 C-10.66 16.32 -11.32 17.64 -12 19 C-12.66 18.67 -13.32 18.34 -14 18 C-13.61142822 17.52578613 -13.22285645 17.05157227 -12.82250977 16.56298828 C-11.06721254 14.41858835 -9.31482587 12.27182855 -7.5625 10.125 C-6.95083984 9.37863281 -6.33917969 8.63226563 -5.70898438 7.86328125 C-5.12568359 7.14785156 -4.54238281 6.43242188 -3.94140625 5.6953125 C-3.40201416 5.03547363 -2.86262207 4.37563477 -2.30688477 3.69580078 C-0.93208673 2.02396512 -0.93208673 2.02396512 0 0 Z " fill="#567880" transform="translate(120,76)"/>
<path d="M0 0 C0.33 0.66 0.66 1.32 1 2 C-0.00390625 4.78515625 -0.00390625 4.78515625 -1.5625 8.0625 C-2.30693359 9.68865234 -2.30693359 9.68865234 -3.06640625 11.34765625 C-5 14 -5 14 -8.21484375 14.87109375 C-9.59349609 14.93490234 -9.59349609 14.93490234 -11 15 C-7.63737574 9.75430616 -3.86435321 4.88471613 0 0 Z " fill="#5B737A" transform="translate(132,61)"/>
<path d="M0 0 C-6.2493017 4.16620113 -10.496864 5.43135365 -17.875 5.1875 C-19.050625 5.16719727 -19.050625 5.16719727 -20.25 5.14648438 C-22.16696782 5.11141789 -24.08357751 5.05762072 -26 5 C-26 4.67 -26 4.34 -26 4 C-21.71 4 -17.42 4 -13 4 C-13 3.34 -13 2.68 -13 2 C-4.57142857 -0.28571429 -4.57142857 -0.28571429 0 0 Z " fill="#65868A" transform="translate(181,262)"/>
<path d="M0 0 C0.66 0.66 1.32 1.32 2 2 C1.9375 3.9375 1.9375 3.9375 1 6 C-0.1446875 6.680625 -0.1446875 6.680625 -1.3125 7.375 C-4.62179226 9.37596741 -5.92949624 11.78714934 -8 15 C-8.66 15 -9.32 15 -10 15 C-8.37815499 11.41486894 -6.20743761 8.41007677 -3.875 5.25 C-3.15054688 4.26515625 -2.42609375 3.2803125 -1.6796875 2.265625 C-1.12539062 1.51796875 -0.57109375 0.7703125 0 0 Z " fill="#547782" transform="translate(67,144)"/>
<path d="M0 0 C0.99 0 1.98 0 3 0 C2.71617054 1.75128818 2.42260471 3.50100003 2.125 5.25 C1.96257812 6.22453125 1.80015625 7.1990625 1.6328125 8.203125 C1.05144152 10.77264117 0.29159735 12.72071056 -1 15 C-1.18451025 4.44191344 -1.18451025 4.44191344 0 0 Z " fill="#4C6870" transform="translate(212,65)"/>
<path d="M0 0 C0.33 0.66 0.66 1.32 1 2 C0.67 2.99 0.34 3.98 0 5 C-0.66 5 -1.32 5 -2 5 C-2 6.98 -2 8.96 -2 11 C-3.32 10.34 -4.64 9.68 -6 9 C-4.68775452 5.06326356 -3.08089673 2.77280706 0 0 Z " fill="#D2F5F9" transform="translate(16,300)"/>
<path d="M0 0 C2.97 0.33 5.94 0.66 9 1 C6.3139714 2.79068573 4.3373411 3.66055791 1.3125 4.625 C0.50425781 4.88539063 -0.30398437 5.14578125 -1.13671875 5.4140625 C-1.75160156 5.60742188 -2.36648437 5.80078125 -3 6 C-3 5.34 -3 4.68 -3 4 C-2.01 4 -1.02 4 0 4 C0 2.68 0 1.36 0 0 Z " fill="#556F76" transform="translate(196,252)"/>
<path d="M0 0 C1.65 0.99 3.3 1.98 5 3 C3.35 4.98 1.7 6.96 0 9 C-1.10844919 5.67465243 -0.84454356 3.37817425 0 0 Z " fill="#7FACB6" transform="translate(205,102)"/>
<path d="M0 0 C0.66 0 1.32 0 2 0 C1.71617054 1.75128818 1.42260471 3.50100003 1.125 5.25 C0.96257812 6.22453125 0.80015625 7.1990625 0.6328125 8.203125 C0.05144152 10.77264117 -0.70840265 12.72071056 -2 15 C-2.3690205 4.44191344 -2.3690205 4.44191344 0 0 Z " fill="#466D73" transform="translate(221,32)"/>
<path d="M0 0 C0 2.62113708 -0.31292445 4.50935112 -1 7 C-1.99 7 -2.98 7 -4 7 C-4.66 8.32 -5.32 9.64 -6 11 C-6.99 11 -7.98 11 -9 11 C-6.03 7.37 -3.06 3.74 0 0 Z " fill="#557881" transform="translate(77,132)"/>
<path d="M0 0 C0.33 0 0.66 0 1 0 C1.36463732 1.74784829 1.7163078 3.49840502 2.0625 5.25 C2.25972656 6.22453125 2.45695313 7.1990625 2.66015625 8.203125 C2.98397535 10.868119 2.85503199 12.48871723 2 15 C0 13 0 13 -0.1953125 9.9609375 C-0.17210937 8.77757813 -0.14890625 7.59421875 -0.125 6.375 C-0.10695312 5.18648438 -0.08890625 3.99796875 -0.0703125 2.7734375 C-0.04710937 1.85820313 -0.02390625 0.94296875 0 0 Z " fill="#658D98" transform="translate(205,114)"/>
<path d="M0 0 C2 2 2 2 2 5 C-0.5 7.1875 -0.5 7.1875 -3 9 C-3.66 8.34 -4.32 7.68 -5 7 C-3.35 4.69 -1.7 2.38 0 0 Z " fill="#59757F" transform="translate(53,162)"/>
<path d="M0 0 C1.32 0 2.64 0 4 0 C4 1.32 4 2.64 4 4 C2.35 4.33 0.7 4.66 -1 5 C-1 1 -1 1 0 0 Z " fill="#566B74" transform="translate(212,246)"/>
<path d="M0 0 C0.66 0 1.32 0 2 0 C2 0.99 2 1.98 2 3 C2.99 3.33 3.98 3.66 5 4 C5 4.66 5 5.32 5 6 C5.66 6.33 6.32 6.66 7 7 C5.68 7.33 4.36 7.66 3 8 C0 2.25 0 2.25 0 0 Z " fill="#565E61" transform="translate(39,210)"/>
<path d="M0 0 C0.66 0.33 1.32 0.66 2 1 C-2.18586481 4.18923033 -4.70558305 5.50423019 -10 5 C-6.76527494 2.84351662 -3.62848922 1.38542316 0 0 Z " fill="#D0F5F8" transform="translate(58,272)"/>
<path d="M0 0 C2.84383123 1.2748209 5.13754018 2.45137078 7 5 C6.6875 7.1875 6.6875 7.1875 6 9 C6 8.01 6 7.02 6 6 C5.071875 5.9071875 5.071875 5.9071875 4.125 5.8125 C2 5 2 5 0.75 2.4375 C0.5025 1.633125 0.255 0.82875 0 0 Z " fill="#CBF3F4" transform="translate(249,298)"/>
<path d="M0 0 C0.33 0 0.66 0 1 0 C1 5.28 1 10.56 1 16 C0.01 15.67 -0.98 15.34 -2 15 C-1.67 14.01 -1.34 13.02 -1 12 C-0.77674186 9.94106379 -0.59294241 7.87766347 -0.4375 5.8125 C-0.35371094 4.72582031 -0.26992187 3.63914063 -0.18359375 2.51953125 C-0.12300781 1.68808594 -0.06242188 0.85664062 0 0 Z " fill="#73A3AC" transform="translate(133,51)"/>
<path d="M0 0 C0.66 0.33 1.32 0.66 2 1 C0.94901234 3.86632997 0.33137046 4.83006643 -2.4375 6.25 C-5 7 -5 7 -8 7 C-5.36 4.69 -2.72 2.38 0 0 Z " fill="#C4F8F6" transform="translate(30,287)"/>
<path d="M0 0 C2 3 2 3 2 7 C1.34 7 0.68 7 0 7 C-0.33 6.34 -0.66 5.68 -1 5 C-1.99 5.66 -2.98 6.32 -4 7 C-2.92598892 4.08482708 -2.22189824 2.22189824 0 0 Z " fill="#577579" transform="translate(44,174)"/>
<path d="M0 0 C2.31 0 4.62 0 7 0 C7 0.66 7 1.32 7 2 C5.1875 3.0625 5.1875 3.0625 3 4 C2.01 3.67 1.02 3.34 0 3 C0 2.01 0 1.02 0 0 Z " fill="#CAF2F2" transform="translate(248,307)"/>
<path d="M0 0 C0.66 0.33 1.32 0.66 2 1 C-2.296875 5.00390625 -2.296875 5.00390625 -4 6 C-6.203125 5.65234375 -6.203125 5.65234375 -8 5 C-6.71475739 4.13619741 -5.42157581 3.28419631 -4.125 2.4375 C-3.04605469 1.72400391 -3.04605469 1.72400391 -1.9453125 0.99609375 C-1.30335937 0.66738281 -0.66140625 0.33867187 0 0 Z " fill="#CCF9FB" transform="translate(46,277)"/>
<path d="M0 0 C0.33 0.66 0.66 1.32 1 2 C0.22265625 3.9453125 0.22265625 3.9453125 -0.9375 6.125 C-1.31777344 6.84945312 -1.69804687 7.57390625 -2.08984375 8.3203125 C-2.39019531 8.87460938 -2.69054687 9.42890625 -3 10 C-3.66 8.68 -4.32 7.36 -5 6 C-3.35 4.02 -1.7 2.04 0 0 Z " fill="#517B85" transform="translate(132,61)"/>
<path d="M0 0 C0.66 0 1.32 0 2 0 C2 1.32 2 2.64 2 4 C1.34 4 0.68 4 0 4 C-0.33 5.32 -0.66 6.64 -1 8 C-2.2077558 4.37673261 -1.54311128 3.35853631 0 0 Z " fill="#5D5B5C" transform="translate(36,196)"/>
</svg>